# AST/ASF file generated using VICON BodyLanguage
# -----------------------------------------------
:version 1.10
:name VICON
:units
  mass 1.0
  length 0.45
  angle deg
:documentation
   .ast/.asf automatically generated from VICON data using
   VICON BodyBuilder and BodyLanguage model FoxedUp or BRILLIANT.MOD
:root
   order TX TY TZ RX RY RZ
   axis XYZ
   position 0 0 0  
   orientation 0 -0 0 
:bonedata
  begin
     id 1 
     name lhipjoint
     direction 0.500677 -0.737119 0.453848 
     length 2.34727 
     axis 0 -0 0  XYZ
  end
  begin
     id 2 
     name lfemur
     direction 0.34202 -0.939693 0  
     length 7.53653  
     axis 0 -0 20  XYZ
    dof rx ry rz
    limits (-160.0 20.0)
           (-70.0 70.0)
           (-60.0 70.0)
  end
  begin
     id 3 
     name ltibia
     direction 0.34202 -0.939693 0   
     length 6.85572   
     axis 0 -0 20   XYZ
    dof rx
    limits (-10.0 170.0)
  end
  begin
     id 4 
     name lfoot
     direction 0.155313 -0.426718 0.890949   
     length 2.18324   
     axis -90 -1.13533e-015 20   XYZ
    dof rx rz
    limits (-45.0 90.0)
           (-70.0 20.0)
  end
  begin
     id 5 
     name ltoes
     direction 1.53474e-011 -4.21647e-011 1   
     length 1.06748   
     axis -90 -1.13533e-015 20   XYZ
    dof rx
    limits (-90.0 20.0)
  end
  begin
     id 6 
     name rhipjoint
     direction -0.632471 -0.659587 0.406111   
     length 2.62319  
     axis 0 -0 0  XYZ 
  end
  begin
     id 7 
     name rfemur
     direction -0.34202 -0.939693 0   
     length 7.21735   
     axis 0 -0 -20   XYZ
    dof rx ry rz
    limits (-160.0 20.0)
           (-70.0 70.0)
           (-70.0 60.0)
  end
  begin
     id 8 
     name rtibia
     direction -0.34202 -0.939693 0   
     length 7.02558   
     axis 0 -0 -20   XYZ
    dof rx
    limits (-10.0 170.0)
 end
 begin
     id 9 
     name rfoot
     direction -0.16057 -0.441164 0.882945   
     length 2.10014  
     axis -90 1.13533e-015 -20   XYZ
    dof rx rz
    limits (-45.0 90.0)
           (-20.0 70.0)
  end
  begin
     id 10 
     name rtoes
     direction -1.53553e-011 -4.2192e-011 1   
     length 1.02554   
     axis -90 1.13533e-015 -20   XYZ
    dof rx
    limits (-90.0 20.0)
  end
  begin
     id 11 
     name lowerback
     direction 0.0401429 0.998861 -0.0258085   
     length 1.80848   
     axis 0 -0 0   XYZ
    dof rx ry rz
    limits (-20.0 45.0)
           (-30.0 30.0)
           (-30.0 30.0)
  end
  begin
     id 12 
     name upperback
     direction -0.0130978 0.999914 -0.000352645   
     length 1.8116   
     axis 0 -0 0   XYZ
    dof rx ry rz
    limits (-20.0 45.0)
           (-30.0 30.0)
           (-30.0 30.0)
  end
  begin
     id 13 
     name thorax
     direction -0.0300198 0.999453 0.0138573   
     length 1.81778   
     axis 0 -0 0   XYZ
    dof rx ry rz
    limits (-20.0 45.0)
           (-30.0 30.0)
           (-30.0 30.0)
  end
  begin
     id 14 
     name lowerneck
     direction -0.0401726 0.999191 -0.00173647   
     length 2.10594   
     axis 0 -0 0   XYZ
    dof rx ry rz
    limits (-20.0 45.0)
           (-30.0 30.0)
           (-30.0 30.0)
  end
  begin
     id 15 
     name upperneck
     direction 0.0119835 0.998501 0.0534085   
     length 2.07325   
     axis 0 -0 0   XYZ
    dof rx ry rz
    limits (-20.0 45.0)
           (-30.0 30.0)
           (-30.0 30.0)
  end
  begin
     id 16
     name head
     direction 0.00628309 0.999826 0.0175921  
     length 2.15096  
     axis 0 -0 0   XYZ
    dof rx ry rz
    limits (-20.0 45.0)
           (-30.0 30.0)
           (-30.0 30.0)
  end
  begin
     id 17 
     name lclavicle
     direction 0.895501 0.429681 -0.115981  
     length 4.18092  
     axis 0 -0 0   XYZ
    dof ry rz
    limits (-20.0 10.0)
           (0.0 20.0)
  end
  begin
     id 18 
     name lhumerus
     direction 1 -4.48961e-011 -3.38433e-028   
     length 5.77237   
     axis 180 -30 -90   XYZ
    dof rx ry rz
    limits (-60.0 90.0)
           (-90.0 90.0)
           (-90.0 90.0)
  end
  begin
     id 19
     name lradius
     direction 1 -4.4901e-011 1.11983e-026   
     length 2.91878   
     axis 180 -30 -90   XYZ
    dof rx
    limits (-10.0 170.0)
  end
  begin
     id 20
     name lwrist
     direction 1 -4.48934e-011 1.88176e-026   
     length 1.45939   
     axis -1.23311e-014 90 90   XYZ
    dof ry
    limits (-180.0 0.0)
 end
  begin
     id 21 
     name lhand
     direction 1 -4.4895e-011 3.76352e-026   
     length 1.06566   
     axis -2.40147e-014 90 90   XYZ
    dof rx rz
    limits (-90.0 90.0)
           (-45.0 45.0)
  end
  begin
     id 22 
     name lfingers
     direction 1 -4.49005e-011 7.52705e-026   
     length 0.859162   
     axis -4.80295e-014 90 90   XYZ
    dof rx
    limits (0.0 90.0)
  end
  begin
     id 23
     name lthumb
     direction 0.707107 -6.34885e-011 0.707107   
     length 1.23359   
     axis -90 45 -9.86935e-015   XYZ
    dof rx rz
    limits (-45.0 45.0)
           (-45.0 45.0)
  end
  begin
     id 24 
     name rclavicle
     direction -0.91006 0.40451 -0.0903492   
     length 4.23293  
     axis 0 -0 0   XYZ 
    dof ry rz
    limits (-10.0 20.0)
           (-20.0 0.0)
  end
  begin
     id 25 
     name rhumerus
     direction -1 -4.4897e-011 1.7415e-027  
     length 5.49854   
     axis 180 30 90   XYZ
    dof rx ry rz
    limits (-90.0 60.0)
           (-90.0 90.0)
           (-90.0 90.0)
  end
  begin
     id 26 
     name rradius
     direction -1 -4.48963e-011 1.21259e-026   
     length 3.1186   
     axis 180 30 90   XYZ
    dof rx
    limits (-10.0 170.0)
  end
  begin
     id 27 
     name rwrist
     direction -1 -4.48967e-011 1.88176e-026   
     length 1.5593   
     axis -1.23311e-014 -90 -90   XYZ
    dof ry
    limits (-180.0 0.0)
  end
  begin
     id 28
     name rhand
     direction -1 -4.4895e-011 3.76352e-026   
     length 0.71207   
     axis -2.40147e-014 -90 -90   XYZ
    dof rx rz
    limits (-90.0 90.0)
           (-45.0 45.0)
  end
  begin
     id 29
     name rfingers
     direction -1 -4.49005e-011 7.52705e-026   
     length 0.574089   
     axis -4.80295e-014 -90 -90   XYZ
    dof rx
    limits (0.0 90.0)
  end
  begin
     id 30
     name rthumb
     direction -0.707107 -6.34982e-011 0.707107   
     length 0.824281   
     axis -90 -45 9.86935e-015   XYZ
    dof rx rz
    limits (-45.0 45.0)
           (-45.0 45.0)
  end
:hierarchy
  begin
    root lhipjoint rhipjoint lowerback
    lhipjoint lfemur
    lfemur ltibia
    ltibia lfoot
    lfoot ltoes
    rhipjoint rfemur
    rfemur rtibia
    rtibia rfoot
    rfoot rtoes
    lowerback upperback
    upperback thorax
    thorax lowerneck lclavicle rclavicle
    lowerneck upperneck
    upperneck head
    lclavicle lhumerus
    lhumerus lradius
    lradius lwrist
    lwrist lhand lthumb
    lhand lfingers
    rclavicle rhumerus
    rhumerus rradius
    rradius rwrist
    rwrist rhand rthumb
    rhand rfingers
  end

#!OML:ASF C:\ViconDB\ViconDB\414\Spring2016\042216\male.ASF
:FULLY-SPECIFIED
:DEGREES
66
root -44.8567 16.9925 13.5154 -164.799 86.5818 -165.008
lowerback -3.34523 -1.80657 4.10858
upperback -0.153773 -2.55173 -0.510152
thorax 1.51401 -1.24342 -2.94001
lowerneck -2.18572 2.42073 -3.90523
upperneck -0.497115 3.32079 2.34228
head 0.104401 1.67684 1.39708
rclavicle 3.71415e-014 -4.78326e-016
rhumerus -31.5358 0.179952 -94.441
rradius 28.9546
rwrist 32.9644
rhand 21.3137 -20.4431
rfingers 7.12502
rthumb 45.7569 -43.6382
lclavicle 3.71415e-014 -4.78326e-016
lhumerus -37.4125 13.3431 86.822
lradius 32.7539
lwrist -15.2561
lhand 2.27868 12.011
lfingers 7.12502
lthumb 27.7711 39.9795
rfemur -11.25 -2.50172 19.8625
rtibia 28.3264
rfoot -19.1994 4.20005
rtoes -7.25258
lfemur -9.30959 -2.27619 -18.8563
ltibia 28.0326
lfoot -28.1095 9.03525
ltoes -15.7364
67
root -44.8553 16.9958 13.5135 -165.212 86.6155 -165.466
lowerback -3.4023 -1.81906 4.171
upperback -0.172441 -2.57261 -0.516903
thorax 1.52205 -1.25342 -2.98451
lowerneck -2.20974 2.48477 -3.90388
upperneck -0.357087 3.40573 2.14972
head 0.152071 1.71751 1.3379
rclavicle 1.12399e-015 3.99433e-015
rhumerus -31.5001 1.08513 -94.8417
rradius 28.5536
rwrist 34.4326
rhand 21.08 -20.212
rfingers 7.12502
rthumb 45.5398 -43.4957
lclavicle 1.12399e-015 3.99433e-015
lhumerus -37.4128 13.2391 86.7793
lradius 32.5734
lwrist -15.4796
lhand 2.15882 12.0539
lfingers 7.12502
lthumb 27.6565 40.0408
rfemur -11.3115 -2.61386 19.8165
rtibia 28.3468
rfoot -19.2438 4.3166
rtoes -6.9893
lfemur -9.33679 -2.35293 -18.8973
ltibia 28.0018
lfoot -28.0929 9.0168
ltoes -15.571
68
root -44.8541 16.9971 13.5127 -165.602 86.6793 -165.875
lowerback -3.42059 -1.83305 4.1799
upperback -0.197253 -2.59198 -0.498091
thorax 1.50564 -1.26376 -2.97098
lowerneck -2.19622 2.55203 -3.96646
upperneck -0.248876 3.49575 2.00582
head 0.181729 1.76092 1.30445
rclavicle -5.14922e-014 -3.70236e-015
rhumerus -31.3922 2.37779 -95.3391
rradius 27.9617
rwrist 35.51
rhand 20.7658 -20.0883
rfingers 7.12502
rthumb 45.2478 -43.4896
lclavicle -5.14922e-014 -3.70236e-015
lhumerus -37.4546 12.783 86.9398
lradius 32.4878
lwrist -15.4988
lhand 2.04058 12.1114
lfingers 7.12502
lthumb 27.5434 40.1164
rfemur -11.3329 -2.35675 19.786
rtibia 28.3764
rfoot -19.2948 4.10264
rtoes -6.92558
lfemur -9.3316 -2.38077 -18.9442
ltibia 27.9663
lfoot -28.0749 9.07947
ltoes -15.4861
69
root -44.8514 16.995 13.5181 -165.724 86.81 -165.953
lowerback -3.40999 -1.82729 4.07727
upperback -0.197094 -2.58064 -0.448261
thorax 1.50759 -1.25879 -2.86137
lowerneck -2.17145 2.63328 -3.99989
upperneck -0.123005 3.60373 1.8212
head 0.215669 1.8128 1.25328
rclavicle -4.2102e-015 -6.85807e-015
rhumerus -31.4044 4.39756 -96.1096
rradius 27.6299
rwrist 35.8816
rhand 21.3375 -19.7656
rfingers 7.12502
rthumb 45.779 -42.9516
lclavicle -4.2102e-015 -6.85807e-015
lhumerus -37.4844 12.2281 87.1737
lradius 32.3384
lwrist -16.1152
lhand 2.06461 12.0763
lfingers 7.12502
lthumb 27.5664 40.0776
rfemur -11.2976 -2.11621 19.7764
rtibia 28.4148
rfoot -19.2639 4.01176
rtoes -6.66702
lfemur -9.23734 -2.28774 -18.961
ltibia 27.9177
lfoot -28.0511 9.11234
ltoes -15.5991
70
root -44.8483 16.9928 13.5234 -165.863 86.9616 -166.032
lowerback -3.3768 -1.81776 3.99615
upperback -0.203748 -2.56351 -0.433042
thorax 1.48772 -1.25137 -2.79818
lowerneck -2.07165 2.72991 -3.99081
upperneck -0.0561968 3.72842 1.6872
head 0.218376 1.87343 1.20893
rclavicle 2.57535e-014 -7.8023e-015
rhumerus -31.5093 6.8309 -97.072
rradius 27.522
rwrist 35.1839
rhand 22.3316 -19.9893
rfingers 7.12502
rthumb 46.7006 -42.7863
lclavicle 2.57535e-014 -7.8023e-015
lhumerus -37.5504 11.5116 87.4058
lradius 32.2498
lwrist -16.6488
lhand 1.98961 12.1086
lfingers 7.12502
lthumb 27.4947 40.1214
rfemur -11.2416 -1.80343 19.7663
rtibia 28.4615
rfoot -19.2893 3.82537
rtoes -6.73808
lfemur -9.11103 -2.11267 -18.9836
ltibia 27.8609
lfoot -28.0514 9.11529
ltoes -15.6456
71
root -44.8482 16.9931 13.5189 -166.463 87.0045 -166.677
lowerback -3.42243 -1.82662 4.09617
upperback -0.241982 -2.57945 -0.471799
thorax 1.46651 -1.25959 -2.89554
lowerneck -1.86875 2.80295 -3.98923
upperneck -0.141426 3.81788 1.62133
head 0.156933 1.9179 1.18348
rclavicle 2.79401e-014 -3.47873e-015
rhumerus -31.6878 9.37931 -98.1303
rradius 27.4942
rwrist 33.2332
rhand 22.5441 -19.8131
rfingers 7.12502
rthumb 46.8973 -42.5245
lclavicle 2.79401e-014 -3.47873e-015
lhumerus -37.6047 10.6927 87.661
lradius 32.141
lwrist -17.3707
lhand 1.99096 11.704
lfingers 7.12502
lthumb 27.4959 39.7166
rfemur -11.3371 -1.84418 19.7017
rtibia 28.5131
rfoot -19.2536 3.89381
rtoes -6.98106
lfemur -9.12527 -2.17732 -19.0616
ltibia 27.8177
lfoot -27.9684 9.28478
ltoes -15.7336
72
root -44.8459 16.9958 13.5156 -166.664 87.0613 -166.903
lowerback -3.46131 -1.81716 4.13501
upperback -0.27078 -2.5692 -0.470491
thorax 1.45782 -1.25476 -2.91638
lowerneck -1.6361 2.84677 -4.02409
upperneck -0.28179 3.86786 1.56399
head 0.0740658 1.94325 1.16564
rclavicle -2.67987e-014 1.98785e-016
rhumerus -31.9525 11.4428 -98.9208
rradius 27.6996
rwrist 31.5065
rhand 22.8636 -19.3108
rfingers 7.12502
rthumb 47.1928 -41.8916
lclavicle -2.67987e-014 1.98785e-016
lhumerus -37.6638 9.86845 87.982
lradius 32.0318
lwrist -18.5822
lhand 1.62834 11.4881
lfingers 7.12502
lthumb 27.1491 39.5553
rfemur -11.3845 -1.91037 19.6589
rtibia 28.5362
rfoot -19.2719 4.02193
rtoes -6.83051
lfemur -9.13172 -2.33117 -19.1042
ltibia 27.7905
lfoot -27.9447 9.40513
ltoes -15.5235
73
root -44.8407 16.9921 13.5183 -166.669 87.1619 -166.818
lowerback -3.45426 -1.78227 4.15486
upperback -0.2404 -2.52329 -0.522991
thorax 1.48562 -1.23064 -2.98022
lowerneck -1.39983 2.869 -3.95469
upperneck -0.453032 3.88686 1.56092
head -0.0169462 1.95339 1.14672
rclavicle -2.0773e-014 -7.60351e-015
rhumerus -32.1364 12.6932 -99.4862
rradius 27.9625
rwrist 30.6839
rhand 23.1189 -19.3888
rfingers 7.12502
rthumb 47.4287 -41.8638
lclavicle -2.0773e-014 -7.60351e-015
lhumerus -37.7289 8.82768 88.2906
lradius 32.1417
lwrist -19.1767
lhand 1.61331 11.4527
lfingers 7.12502
lthumb 27.1347 39.5222
rfemur -11.2831 -1.9092 19.6517
rtibia 28.5493
rfoot -19.3716 4.07538
rtoes -6.54212
lfemur -8.99284 -2.27791 -19.1128
ltibia 27.7752
lfoot -27.9731 9.40616
ltoes -15.5995
74
root -44.8381 16.9938 13.5158 -166.703 87.2121 -166.834
lowerback -3.48662 -1.75281 4.25099
upperback -0.233015 -2.48855 -0.579214
thorax 1.50763 -1.21196 -3.09206
lowerneck -1.18639 2.89018 -3.91882
upperneck -0.611777 3.90629 1.60133
head -0.101818 1.96371 1.14791
rclavicle 9.06179e-015 -9.44227e-016
rhumerus -32.2897 13.2433 -99.6455
rradius 28.3258
rwrist 30.9339
rhand 23.5843 -19.0402
rfingers 7.12502
rthumb 47.8583 -41.3188
lclavicle 9.06179e-015 -9.44227e-016
lhumerus -37.7406 7.95913 88.5362
lradius 32.1468
lwrist -19.4458
lhand 1.82252 11.3721
lfingers 7.12502
lthumb 27.3348 39.4101
rfemur -11.2514 -1.74817 19.6371
rtibia 28.5462
rfoot -19.3612 3.96804
rtoes -6.57534
lfemur -8.96006 -2.35956 -19.1495
ltibia 27.7819
lfoot -27.9528 9.5693
ltoes -15.5595
75
root -44.8357 16.9935 13.5139 -166.664 87.2698 -166.78
lowerback -3.54576 -1.74908 4.25096
upperback -0.197456 -2.48773 -0.541236
thorax 1.57916 -1.20932 -3.05596
lowerneck -0.965641 2.95371 -4.12379
upperneck -0.858703 3.98544 1.71937
head -0.223556 2.00528 1.21382
rclavicle 8.57414e-015 -7.40473e-015
rhumerus -32.3673 13.8049 -99.6154
rradius 28.6563
rwrist 31.0688
rhand 23.8223 -18.984
rfingers 7.12502
rthumb 48.0777 -41.1605
lclavicle 8.57414e-015 -7.40473e-015
lhumerus -37.7718 7.20121 88.9318
lradius 32.1892
lwrist -19.913
lhand 1.5125 10.8594
lfingers 7.12502
lthumb 27.0383 38.9439
rfemur -11.2403 -1.81794 19.6153
rtibia 28.5585
rfoot -19.3272 4.06681
rtoes -6.4737
lfemur -8.94564 -2.06336 -19.142
ltibia 27.7886
lfoot -28.0154 9.29474
ltoes -15.5126
76
root -44.8341 16.9904 13.514 -166.004 87.3451 -166.055
lowerback -3.55934 -1.73579 4.25603
upperback -0.135531 -2.47309 -0.505124
thorax 1.65319 -1.19936 -3.02295
lowerneck -0.736045 3.00279 -4.19379
upperneck -1.15588 4.04304 1.71098
head -0.356448 2.03633 1.21639
rclavicle 9.81499e-016 2.43511e-015
rhumerus -32.4556 14.3361 -99.6157
rradius 28.9569
rwrist 30.9706
rhand 23.9161 -18.9889
rfingers 7.12502
rthumb 48.1642 -41.1247
lclavicle 9.81499e-016 2.43511e-015
lhumerus -37.7384 6.71827 89.198
lradius 32.1529
lwrist -20.3953
lhand 0.607394 10.4088
lfingers 7.12502
lthumb 26.172 38.6246
rfemur -11.1744 -1.86081 19.629
rtibia 28.5722
rfoot -19.302 4.2131
rtoes -6.38528
lfemur -8.84447 -1.92706 -19.1113
ltibia 27.7787
lfoot -28.0345 9.22663
ltoes -15.5479
77
root -44.8333 16.9885 13.5127 -166.228 87.4252 -166.23
lowerback -3.60096 -1.71746 4.27435
upperback -0.0673327 -2.45285 -0.525176
thorax 1.74686 -1.18583 -3.05619
lowerneck -0.493477 3.0311 -4.11809
upperneck -1.4788 4.0708 1.60764
head -0.493256 2.05244 1.16401
rclavicle 9.57894e-015 -2.23633e-015
rhumerus -32.506 14.604 -99.5492
rradius 29.2175
rwrist 31.5686
rhand 24.2056 -18.5345
rfingers 7.12502
rthumb 48.4308 -40.5437
lclavicle 9.57894e-015 -2.23633e-015
lhumerus -37.6966 6.8733 88.956
lradius 31.6661
lwrist -21.7175
lhand 0.276314 8.21498
lfingers 7.12502
lthumb 25.855 36.4774
rfemur -11.1323 -1.76715 19.5979
rtibia 28.5871
rfoot -19.3725 4.1988
rtoes -6.48405
lfemur -8.76169 -1.93331 -19.161
ltibia 27.7665
lfoot -28.0118 9.3726
ltoes -15.9007
78
root -44.8346 16.9884 13.5101 -165.146 87.4842 -165.136
lowerback -3.63044 -1.68043 4.40166
upperback -0.0170507 -2.41058 -0.579047
thorax 1.8113 -1.16118 -3.18356
lowerneck -0.19347 3.04045 -3.91543
upperneck -1.87937 4.07116 1.4759
head -0.659371 2.05484 1.08021
rclavicle 5.29947e-014 -9.0447e-015
rhumerus -32.5263 14.7766 -99.6011
rradius 29.4212
rwrist 31.8882
rhand 24.2865 -18.451
rfingers 7.12502
rthumb 48.5053 -40.4246
lclavicle 5.29947e-014 -9.0447e-015
lhumerus -37.6733 7.03177 88.6263
lradius 31.363
lwrist -22.4568
lhand -0.507879 6.18987
lfingers 7.12502
lthumb 25.1038 34.5596
rfemur -11.1417 -1.84981 19.6199
rtibia 28.5797
rfoot -19.3484 4.37034
rtoes -6.20019
lfemur -8.74318 -1.98894 -19.1356
ltibia 27.7768
lfoot -27.9806 9.4755
ltoes -15.5429
